<svg
  width="165"
  height="180"
  viewBox="0 0 165 180"
  fill="none"
  xmlns="http://www.w3.org/2000/svg"
>
  <path
    d="M140.625 180H23.4375C22.2715 180 21.3281 179.057 21.3281 177.891V27.6563H0V23.4375H50.625V2.10938C50.625 0.943359 51.5684 0 52.7344 0H111.328C112.494 0 113.438 0.943359 113.438 2.10938V23.4375H164.062V27.6563H142.734V177.891C142.734 179.057 141.791 180 140.625 180ZM25.5469 175.781H138.516V27.6563H25.5469V175.781ZM54.8437 23.4375H109.219V4.21875H54.8437V23.4375V23.4375Z"
    fill="#888"
  />
  <path
    d="M111.328 156.562C110.162 156.562 109.218 155.618 109.218 154.452V48.9834C109.218 47.8174 110.162 46.874 111.328 46.874C112.494 46.874 113.437 47.8174 113.437 48.9834V154.452C113.437 155.618 112.494 156.562 111.328 156.562ZM82.0308 156.562C80.8647 156.562 79.9214 155.618 79.9214 154.452V48.9834C79.9214 47.8174 80.8647 46.874 82.0308 46.874C83.1968 46.874 84.1401 47.8174 84.1401 48.9834V154.452C84.1401 155.618 83.1968 156.562 82.0308 156.562ZM52.7339 156.562C51.5679 156.562 50.6245 155.618 50.6245 154.452V48.9834C50.6245 47.8174 51.5679 46.874 52.7339 46.874C53.8999 46.874 54.8433 47.8174 54.8433 48.9834V154.452C54.8433 155.618 53.8999 156.562 52.7339 156.562Z"
    fill="#888"
  />
</svg>
